/* XPM */
static char *_13547866bb5449cbcaeef11ce936d90HDRDGsrdVENKIMoj[] = {
/* columns rows colors chars-per-pixel */
"40 41 157 2 ",
"   c None",
".  c #F88500",
"X  c #F88B01",
"o  c #F99501",
"O  c #FA9801",
"+  c #F9970F",
"@  c #F99612",
"#  c #FA9D13",
"$  c #F99B1C",
"%  c #FBAD01",
"&  c #FBAB0F",
"*  c #FEB704",
"=  c #FFBC03",
"-  c #FDB30D",
";  c #FEBD0C",
":  c #FBA417",
">  c #FCAA14",
",  c #FAA41D",
"<  c #FDB512",
"1  c #FDBB11",
"2  c #FEBE1A",
"3  c #F99E2B",
"4  c #FAA922",
"5  c #FAA52F",
"6  c #FBB42B",
"7  c #FDBF2C",
"8  c #FBAE37",
"9  c #FFC503",
"0  c #FFCC00",
"q  c #FEC20B",
"w  c #FECB09",
"e  c #FFD400",
"r  c #FFDC00",
"t  c #FED109",
"y  c #FDC010",
"u  c #FFCD13",
"i  c #FFDD14",
"p  c #FFE300",
"a  c #FFEB00",
"s  c #FFE30E",
"d  c #FFE809",
"f  c #FFF201",
"g  c #FFF800",
"h  c #FFF30B",
"j  c #FFE71A",
"k  c #FFEB1C",
"l  c #FFF316",
"z  c #FFF31D",
"x  c #FDC629",
"c  c #FFD128",
"v  c #FECC33",
"b  c #FFDF3E",
"n  c #FFEF20",
"m  c #FFE12E",
"M  c #FFED2D",
"N  c #FFF322",
"B  c #FFF32B",
"V  c #FFEF36",
"C  c #FFF335",
"Z  c #FFF43E",
"A  c #FBB645",
"S  c #FAB153",
"D  c #FCCA4B",
"F  c #FFD54B",
"G  c #FEDC4C",
"H  c #FCC15F",
"J  c #FFD75A",
"K  c #FFDA5E",
"L  c #FFEE41",
"P  c #FFE749",
"I  c #FFF445",
"U  c #FFF44C",
"Y  c #FFE558",
"T  c #FFEB59",
"R  c #FFF454",
"E  c #FFF45C",
"W  c #FFFA5E",
"Q  c #FFDA62",
"!  c #FDD26A",
"~  c #FCCB77",
"^  c #FCCA7F",
"/  c #FFE16F",
"(  c #FFEB6E",
")  c #FFF464",
"_  c #FFF56C",
"`  c #FFF86E",
"'  c #FFF574",
"]  c #FFF875",
"[  c #FFF67C",
"{  c #FFF87E",
"}  c #FDD98B",
"|  c #FDD89B",
" . c #FFEB87",
".. c #FFF783",
"X. c #FFF885",
"o. c #FFF78C",
"O. c #FFF98D",
"+. c #FFEC9B",
"@. c #FFF791",
"#. c #FFF895",
"$. c #FFF79A",
"%. c #FFF89B",
"&. c #FFF9A4",
"*. c #FFF9AC",
"=. c #FFF7B4",
"-. c #FFF9B4",
";. c #FFFBBA",
":. c #FFF8BD",
">. c #FFFABD",
",. c #FFF9BF",
"<. c #FFFABC",
"1. c #FFFAC3",
"2. c #FFFEC2",
"3. c #FFFAC4",
"4. c #FFFAC7",
"5. c #FFFAC4",
"6. c #FFF7CD",
"7. c #FFFBCA",
"8. c #FFFCCC",
"9. c #FFFCCE",
"0. c #FFFBCD",
"q. c #FFFBD1",
"w. c #FFFDD3",
"e. c #FFFFD3",
"r. c #FFFCD7",
"t. c #FFFCD4",
"y. c #FFFCD8",
"u. c #FFFCDA",
"i. c #FFFDDB",
"p. c #FFFBDC",
"a. c #FFFCDE",
"s. c #FFFDDF",
"d. c #FFFCDC",
"f. c #FFFDE0",
"g. c #FFFDE1",
"h. c #FFFFE1",
"j. c #FFFDE4",
"k. c #FFFEE4",
"l. c #FFFDE6",
"z. c #FFFDE7",
"x. c #FFFEE6",
"c. c #FFFFE7",
"v. c #FFFDE3",
"b. c #FEF7E9",
"n. c #FFFEED",
"m. c #FFFEEE",
"M. c #FFFEEF",
"N. c #FFFEEB",
"B. c #FFFEF0",
"V. c #FFFFF6",
"C. c #FFFEF3",
"Z. c #FFFFF8",
"A. c #FFFFF9",
"S. c #FFFFFA",
"D. c #FFFFFD",
"F. c white",
"G. c #FFFFF9",
/* pixels */
"                                * - > O O o X X                                 ",
"                          e 0 0 e e r p p p p e 9 % O                           ",
"                    a p r e e r r p p p p a a g g h M v # .                     ",
"                  I r e 0 e r r r p p p a a f f f l Z W _ D @                   ",
"                 .u 0 0 e e r r r p r p p a a f f B U ) ] O.o.8 .               ",
"            l.+.u 0 0 e e r e e 0 0 0 e e r r p d M R _ ..O.&.-.H X             ",
"          #./ 9 9 0 0 e e 9 = 9 0 e r r p p a a p d j R O.%.&.>.w.~ .           ",
"          b 9 9 0 0 e q ; 9 0 e r r r p p a a f f N V k C @.-.>.9.l.^ .         ",
"        p q 9 0 0 e ; ; 9 0 e e e r r p p a f f h I ) [ C N %.7.q.l.V.S         ",
"      p w q 9 0 0 < ; 9 0 0 e e r r p p a a f f N U _ X.&._ B -.s.l.F.b.3       ",
"      t 1 9 9 0 ; < = 9 0 0 e e r r p p a a f f C E ' O.&.3.o.) i.n.A.F.| .     ",
"    r q q 9 0 q 1 ; 9 0 0 0 e r r p p a a a f l I ) ..%.-.1.f.%.#.V.A.n.p.5     ",
"    w y q 0 9 < 1 q 9 0 0 e e r r p p a a f f B R ' o.&.-.7.f.B.%.i.A.l.f.} .   ",
"  r y q 9 0 ; 1 1 9 0 0 0 e r r r p p a f f h I ) [ @.&.>.t.l.F.i.-.n.f.t.>.$   ",
"  w y q 9 9 < 1 q 9 0 0 e e r r p p a a f f z R _ X.%.-.7.i.B.A.l.;.i.s.9.2.A   ",
"  w y 9 0 q < q q 9 0 0 e e r r p p a a a f C E ' O.&.<.9.f.A.B.s.5.7.t.5.>.! . ",
"0 q q 9 0 ; 1 ; 9 9 0 e e r r r p p a f f l I ) ..$.*.3.y.n.A.N.t.3.q.9.1.-. .X ",
"9 q 9 9 0 ; 1 q 9 0 0 e e r r p p a a f f B R ' O.%.-.9.f.B.V.f.7.<.q.9.<.&.@.+ ",
"0 q 9 0 0 ; ; 9 0 0 0 e e r p p p a f f h I ) [ #.&.1.t.z.A.n.y.3.*.q.q.-.&.O., ",
"9 q 9 0 0 ; q 9 0 0 e e r r p p a a f f z R _ X.%.=.3.p.B.V.l.q.>.&.9.q.&.%.O.4 ",
"= 9 0 0 0 9 9 9 0 0 e r r r p p a a f f C ) ' O.&.>.q.f.A.V.p.7.=.$.7.q.&.#.X.6 ",
"= 9 0 0 0 9 9 9 0 0 e e r p p p a f f l I _ ..%.=.3.t.N.A.z.t.1.*.O.9.3.%.O.[ 7 ",
"* 0 0 0 0 9 9 0 0 e e r r p p p a f f B R ' O.&.-.7.s.V.V.f.9.-.&.o.t.<.#.o.' 1 ",
"* 9 0 0 e 0 9 0 0 e r r r p a a f f h Z ) { O.&.1.t.l.A.n.y.1.-.$.O.l.&.O...) = ",
"  9 0 e e 0 0 0 e e r r p p a a f f N R _ X.$.-.3.s.B.A.j.q.>.&.o.&.l.$.o.] P 9 ",
"  = 0 e e e 0 e e e r r p p a a f f C E [ O.&.<.q.f.V.B.p.7.-.%.[ 9.w.O.X.] m   ",
"  - 0 e e r e 0 e r r r p p a f f z U ) ..$.-.1.y.z.A.N.t.1.*.@.O.l.&.o.[ _ i   ",
"  > 0 e e r r e e r r p p a f f f B R _ o.&.-.7.f.V.V.f.9.=.&.X.7.t.@.X.[ U r   ",
"    - e r e r r r r r p p a f f h I ) [ #.&.1.q.N.A.n.y.3.*.@.*.B.&.@...' k     ",
"    > 9 r r r p r r p p a a f f N R _ ..$.-.7.s.n.V.l.q.>.&.&.n.>.%.O.' R h     ",
"      < r r p p p p p p a a f h C E ' @.&.>.q.f.V.B.s.7.*.*.n.q.&.@..._ '       ",
"        ; p r p p a p a a f f z I ) ..%.-.3.t.n.A.N.y.=.3.B.t.*.%.O.' %.&.      ",
"        : w a p p a a f f f f B R ' o.&.<.7.p.B.V.p.q.s.A.y.-.&.#...@.N.        ",
"          > t a a a a f f f z I ) [ @.&.1.t.N.A.B.n.V.B.t.>.-.&.@.X.-.          ",
"            > t a a f f f B I ) ' o.$.-.1.t.l.B.A.F.N.t.7.<.*.%.' _             ",
"              : w f g f l Z R _ [ @.&.=.3.w.s.n.F.B.f.q.1.<.*.E h               ",
"                : ; p f N I E ' X.#.*.=.7.t.f.B.V.N.s.w.3.$.L a                 ",
"                    > u V R ` ..@.&.*.:.9.s.n.F.A.n.f.=.T s                     ",
"                        < x G ( O.&.;.9.s.N.V.V.6.+.Y i                         ",
"                              - 2 v F J Q K F c w e                             ",
"                                                                                "
};
