/* XPM */
static char *cfd262cd78c84b07e98ce2db9b413c56b5PG2htdyO612edE[] = {
/* columns rows colors chars-per-pixel */
"32 32 225 2 ",
"   c None",
".  c #634026",
"X  c #634027",
"o  c #644128",
"O  c #654128",
"+  c #654228",
"@  c #674229",
"#  c #674329",
"$  c #684329",
"%  c #68432A",
"&  c #69442A",
"*  c #6B452A",
"=  c #6B452B",
"-  c #6E472C",
";  c #6F482C",
":  c #72492E",
">  c #744A2E",
",  c #744B2E",
"<  c #754C2F",
"1  c #764C2F",
"2  c #774D30",
"3  c #784E30",
"4  c #7C5031",
"5  c #7E5132",
"6  c #7E5232",
"7  c #805332",
"8  c #805333",
"9  c #805433",
"0  c #835435",
"q  c #885837",
"w  c #8D5A39",
"e  c #8E5C38",
"r  c #8E5C3A",
"t  c #905C3A",
"y  c #925E3B",
"u  c #94613C",
"i  c #97623D",
"p  c #98613D",
"a  c #99633E",
"s  c #9C643F",
"d  c #9C743D",
"f  c #B5713B",
"g  c #D57F2D",
"h  c #C27D36",
"j  c #CA7F32",
"k  c #E57E25",
"l  c #E57F25",
"z  c #A16541",
"x  c #A06741",
"c  c #A56943",
"v  c #A56A42",
"b  c #A46A43",
"n  c #A56A43",
"m  c #A56B43",
"M  c #A66A42",
"N  c #A66A43",
"B  c #A66B43",
"V  c #A46A44",
"C  c #A56A44",
"Z  c #A56B44",
"A  c #A66B45",
"S  c #A66C44",
"D  c #A86B41",
"F  c #AA6C41",
"G  c #A86E47",
"H  c #AC7244",
"J  c #AA7149",
"K  c #AC734B",
"L  c #AD734D",
"P  c #AD744D",
"I  c #AF764F",
"U  c #B27944",
"Y  c #B0774F",
"T  c #B07750",
"R  c #B17850",
"E  c #B17951",
"W  c #B27A53",
"Q  c #B57D56",
"!  c #B67E57",
"~  c #F1991F",
"^  c #F19B1E",
"/  c #F19A1F",
"(  c #F29C1F",
")  c #F29D1F",
"_  c #F2A01E",
"`  c #F1A31E",
"'  c #F2A51D",
"]  c #F2A71E",
"[  c #EEB31C",
"{  c #F1B51B",
"}  c #F2B61B",
"|  c #F0BA1A",
" . c #F1BA1A",
".. c #F0BB1A",
"X. c #F1BC1A",
"o. c #F1BD1A",
"O. c #F1BE1A",
"+. c #F2BC1D",
"@. c #F1BE1C",
"#. c #F1BF1C",
"$. c #DB812A",
"%. c #CC932E",
"&. c #CC932F",
"*. c #CC942E",
"=. c #CC942F",
"-. c #CE942F",
";. c #D49C2B",
":. c #CC9437",
">. c #E58024",
",. c #E68025",
"<. c #E68125",
"1. c #E48225",
"2. c #E98723",
"3. c #E88424",
"4. c #E98823",
"5. c #E98923",
"6. c #E98A23",
"7. c #E88B23",
"8. c #EA8A23",
"9. c #EB8D20",
"0. c #EB8D21",
"q. c #EB8C22",
"w. c #EC8C22",
"e. c #E88A24",
"r. c #EB9421",
"t. c #F29C20",
"y. c #F39C20",
"u. c #F29D20",
"i. c #F3A027",
"p. c #F3A72B",
"a. c #F1BE21",
"s. c #F1BE2A",
"d. c #F3BF39",
"f. c #F3BA3E",
"g. c #F0C219",
"h. c #F0C319",
"j. c #F1C319",
"k. c #F1C01B",
"l. c #F0C419",
"z. c #F2C031",
"x. c #F2C236",
"c. c #F2C43B",
"v. c #BA8448",
"b. c #B78059",
"n. c #B88159",
"m. c #BB875F",
"M. c #BC865E",
"N. c #BD8860",
"B. c #BE8962",
"V. c #D19A44",
"C. c #C9A54D",
"Z. c #E4AE41",
"A. c #E0AD47",
"S. c #E3B247",
"D. c #F4B54E",
"F. c #C28E66",
"G. c #C38F67",
"H. c #C9976F",
"J. c #CD9B73",
"K. c #CE9D75",
"L. c #CF9E76",
"P. c #D0A077",
"I. c #D2A27A",
"U. c #D4A57C",
"Y. c #D6A67E",
"T. c #D6A77E",
"R. c #F2C74B",
"E. c #F3C74D",
"W. c #F2CE55",
"Q. c #F3CF55",
"!. c #F3CF56",
"~. c #F4CD55",
"^. c #F3CB58",
"/. c #F4CB5F",
"(. c #EFD05A",
"). c #EFD15B",
"_. c #F3D155",
"`. c #F3D056",
"'. c #F3D157",
"]. c #F3D45A",
"[. c #F3D55A",
"{. c #F3D45B",
"}. c #F3D55B",
"|. c #F3D65B",
" X c #F2D55C",
".X c #F3D55C",
"XX c #D9AA81",
"oX c #DCAD84",
"OX c #DCAE85",
"+X c #DCAE86",
"@X c #DFB289",
"#X c #E0B289",
"$X c #E2B58C",
"%X c #E3B78D",
"&X c #E4B78E",
"*X c #E6BC93",
"=X c #E8BD94",
"-X c #E9BE95",
";X c #E9BF95",
":X c #ECC399",
">X c #EDC39A",
",X c #EDC49B",
"<X c #EFC69D",
"1X c #F1C89E",
"2X c #F1C89F",
"3X c #F7D990",
"4X c #F9DA92",
"5X c #F9DF98",
"6X c #F3CBA1",
"7X c #F5CDA3",
"8X c #F5CDA4",
"9X c #F6CEA5",
"0X c #F7D0A5",
"qX c #F8D1A7",
"wX c #F9D2A8",
"eX c #FAD3AA",
"rX c #FBD4AB",
"tX c #FCD6AB",
"yX c #FDD7AD",
"uX c #F7E3A0",
"iX c #F8E3A0",
"pX c #F8E7AB",
"aX c #F9E8AD",
"sX c #F9E9AF",
"dX c #F9EAB0",
/* pixels */
"                              8       8 8       9               ",
"                            8 8 8 8 8 8 8 8 8 8 8 C.            ",
"              ^ ( y.(         8 8 8 8 8 8 8 8 8 8   [..X        ",
"            ( ( ( ( ( ( y.    8 8 - 4 8 8 1 , 8 8     [.        ",
"          9.^ t.( ( ( ^ 9.    9 8 * : 4 9 $ , 8       .X        ",
"          4.l 2.8.8.4.<.3.      8 3 O 4 3 X 4 d )..X[.          ",
"          2.l l k k l l 3.      z e $ * O : u v.).}..X[..X      ",
"          2.l l k l l l 3.    n n w X $ & & a n n         [.    ",
"          4.>.l l k k k 3.  n n w X y , q 0 O s n n             ",
"          4.>.l l l k k $.n n n a a Z 0 t n t x n n n           ",
"      ..h.h.h.[ r.l k l D n n n n n n n S n n n n n n n         ",
"    ..l.l.l.l.l.h.5.l f n n n n n n n n.P n n n n n n n n       ",
"    ] o.l.l.h.h.{ 5.g n n n n n n n T -XT.J n n n n n n n       ",
"    u.( ( ] ] ( u.5.F n n n n n n G.wXqX9X7XR Z n n n n n n     ",
"    u.( ( ( ( ( u.j n n n n n n n >XG.$XH.oXU.n n n n n n n     ",
"    u.( ( ( ( ( ( h n n n n n n n =XL.&XH.R ! n n n n n n n n   ",
"    u.( ( ( ( ( ( h n n n n n n n n.6XyXwX#XG n n n n n n n n   ",
"    u.y.( ( ( ( ( h n n n n n n n n.Z &XI.-XK.n n n n n n n n   ",
"    y.^ ( ( ( ( ( h n n n n n n n >XB.$XH.XXU.n n n n n n n n n ",
"    y.( ( ( ( ( ( h n n n n n n n H.0X9X1XwX! n n n n n n n n n ",
"    u.( ( ( ( ( p.Z.S.A.V.H n n n n n.>XoXP n n n n n n n n n n ",
"    u.( ( ( ( f.[..X.X[.[.~.U n n n n M.R Z n n n n n n n N.K n ",
"    u.( ( ( ( c..X.X[..X]._.:.n n n n n Z n n n n n n n n <XM.n ",
"    u.( ( ( ( +.a.s.c.x.s.h.*.n n n n n n n n n n n n n P rXL Z ",
"    u.( ( ( ( o.l.l.l.l.l.l.*.n n n n n n n n n n n n n oX#XZ n ",
"    u.i.( ( ( o.l.l.l.l.l.l.%.n n n n n n n n n S R F.*X6XP n   ",
"  4XpXdXsX4XD.o.l.l.l.l.l.l.:.n n n n n n n n n I.rX,XK.J n     ",
"iXdXdXdXsXsXsX+.l.l.l.l.l.l.%.n n n n n n n n n Z n n n n       ",
"^.5XdXdXsXuX/.o.l.l.l.l.l.l.;.Z Z Z Z Z Z Z Z Z Z Z n           ",
"}..XQ.~._.}.}.+.l.l.l.l.l.l.                                    ",
"_..X}.}.}.}.}.  { o.h.o...                                      ",
"  R.Q.}._.E.                                                    "
};
