/* XPM */
static char *c9ac2bad2f8c4e61d56192b8f7d00b06udmBfZHK9ipKW0ks[] = {
/* columns rows colors chars-per-pixel */
"32 32 124 2 ",
"   c None",
".  c #654E3D",
"X  c #67503F",
"o  c #69513F",
"O  c #725235",
"+  c #7D5632",
"@  c #7E5833",
"#  c #725339",
"$  c #7A573F",
"%  c #7C593B",
"&  c gray28",
"*  c #4D4D4D",
"=  c #5F5147",
"-  c #5F524A",
";  c #535353",
":  c #5A5A5A",
">  c #655346",
",  c #685547",
"<  c #735944",
"1  c #796457",
"2  c #7D675A",
"3  c #7F6859",
"4  c #646464",
"5  c #6B6B6B",
"6  c #7E746D",
"7  c #737373",
"8  c #7B7B7B",
"9  c #805733",
"0  c #855B35",
"q  c #895F37",
"w  c #845D39",
"e  c #895F38",
"r  c #87603B",
"t  c #8B6239",
"y  c #8F6947",
"u  c #8C6A4E",
"i  c #856650",
"p  c #8B6B52",
"a  c #826A5A",
"s  c #896E5C",
"d  c #916F52",
"f  c #8F715B",
"g  c #95745A",
"h  c #806B60",
"j  c #897264",
"k  c #8C776A",
"l  c #8D786C",
"z  c #937D6D",
"x  c #8F7C71",
"c  c #917F74",
"v  c #8F817A",
"b  c #918077",
"n  c #95857C",
"m  c gray51",
"M  c #8D8D8D",
"N  c #978880",
"B  c #998C84",
"V  c #959595",
"C  c #999999",
"Z  c #A09691",
"A  c #A39A94",
"S  c #A59E9A",
"D  c #A7A09C",
"F  c #A4A3A3",
"G  c #A9A7A6",
"H  c #ADA8A5",
"J  c #A9A9A9",
"K  c #ACA9A8",
"L  c #AEABA9",
"P  c #ACACAC",
"I  c gray68",
"U  c #AEAEAE",
"Y  c #AFAFAF",
"T  c #AAA9A9",
"R  c #B0ADAB",
"E  c #B1ADAC",
"W  c #B1AEAC",
"Q  c #B1AEAD",
"!  c #B2AFAD",
"~  c #B2AFAE",
"^  c #B3B0AE",
"/  c #B3B0AF",
"(  c gray69",
")  c #B1B1B1",
"_  c #B2B1B0",
"`  c #B3B2B1",
"'  c #B2B2B2",
"]  c gray70",
"[  c #B5B2B0",
"{  c #B5B3B2",
"}  c #B4B4B4",
"|  c gray71",
" . c #B6B6B6",
".. c #B7B7B7",
"X. c gray72",
"o. c #B9B9B9",
"O. c gray73",
"+. c #BBBBBB",
"@. c #BCBCBC",
"#. c gray74",
"$. c gray",
"%. c gray75",
"&. c #C0C0C0",
"*. c #C1C1C1",
"=. c gray76",
"-. c #C3C3C3",
";. c gray77",
":. c #C5C5C5",
">. c #C6C6C6",
",. c #C7C6C6",
"<. c gray78",
"1. c #C8C7C7",
"2. c #C8C8C8",
"3. c #C9C8C8",
"4. c gray79",
"5. c #CAC9C9",
"6. c #CACACA",
"7. c #CBCBCB",
"8. c #CCCBCB",
"9. c gray80",
"0. c #D7D7D7",
"q. c #DADADA",
"w. c #DDDDDD",
"e. c gray87",
/* pixels */
"                    9.9.4.9.9.8.9.4.9.9.7.                      ",
"                7.;.<.9.<.9.4.4.4.4.9.<.7.2.7.7.                ",
"            9.9.9.<.4.4.-...} +.} +.-.<.9.7.2.2.9.              ",
"          9.4.<.7.4.&.I ] A N v n A ~ } #.2.9.4.7.7.            ",
"          4.9.9.<./ / x k i g + e z s x H ....7.7.7.9.          ",
"        9.4.9.1.Y S j u w 0 t @ t t 9 q l B ..| 7.4.9.          ",
"        4.4.4.] S k 9 t w 0 0 @ t + 9 t 0 g B ..%.7.9.<.        ",
"      9.4.9.-.~ % t q q w 0 t + t q 9 t w t + A +.7.9.<.        ",
"      9.4.2...c j t t t 0 0 q + t t 9 q t t 0 z } -.7.4.        ",
"      9.4.<.K k 9 t t t 0 9 t + t q + q t e 0 s A o.4.4.        ",
"      4.4.*.C w 0 t t t q 0 t + t t 9 t w w 0 r j @.<.4.        ",
"      9.2.o.B g 0 e t e w 0 t @ t t 9 t q q 0 w l +.7.<.        ",
"      4.4.@.l r 0 w w e w w w + w r + r 0 w 0 w % ] 7.4.        ",
"      4.1.+.7 : : * 4 ; * 4 * # > 4 ; * 5 * * 5 * ] 7.7.        ",
"      4.4.@.7 +.@.* 2.J * 0.V # - q.M 4 w.8 8 q.4 P 7.7.        ",
"      9.9.@.5 4 4 & 5 : * 7 * # - 5 ; * 7 * * 7 & Y <.7.        ",
"      9.6.+.b y 0 r 0 r @ + r + w w + w w q 0 w s ^ <.4.        ",
"      9.9.@.b y r t t t r 0 t + t t + t t t t t p [ 7.8.        ",
"      9.9.*.n d q 0 t t 0 0 t + t t 9 t t t t t z ~ 4.9.        ",
"      9.6.%.b r t t t t 9 0 0 + t t + q t 0 t t t ~ 4.9.        ",
"      9.9.&.n g t t t t 0 0 t + t t 9 t t q t t z L 9.9.        ",
"      7.6.$.n g 0 t t t 0 0 t + t q 9 e q t t t z / 8.4.        ",
"      9.9.%.6 > > , o , , > , O < , = , > > , > > / 4.9.        ",
"      9.7.$.7 F D * W V * $.8 O > -.7 : <.4 5 -.: ( 8.9.        ",
"      9.7.#.7 V M * F v * J 7 O - J 7 : Y 4 4 Y ; ] 7.7.        ",
"      9.4.] 6 X o > X o . > X O o o . o o X X o X / 7.8.        ",
"      9.9.*.n d 0 t t t 0 0 t + t t + t t t t t z ^ 7.8.        ",
"      9.6.%.B d t t t t w 0 t + t t + t 0 t t t k ^ <.8.        ",
"      +.O.] v 2 3 3 a 3 3 3 a 1 a a a a a a a 3 h G X.+.        ",
"V C C C K G C C M V V M M M m M M M M M M V V V C V C V C C C   ",
"C C C C F C C V C C D V V V V C J F C D V V C V C F C V F F T   ",
"C V C V C C C C C C C C C C C C C C C F C C C C C C C V C C J   "
};
