/* XPM */
static char *_2e127c001e44eb782d9e71ee60064818BRlviPoT2PilHLd[] = {
/* columns rows colors chars-per-pixel */
"32 32 138 2 ",
"   c #073703",
".  c #023C00",
"X  c #0C3E09",
"o  c #044400",
"O  c #0B4502",
"+  c #054C00",
"@  c #0C4B03",
"#  c #0E4B09",
"$  c #164706",
"%  c #124C04",
"&  c #13460B",
"*  c #134D0A",
"=  c #194F0E",
"-  c #055400",
";  c #0D5303",
":  c #0E5A03",
">  c #0F550A",
",  c #0F5A08",
"<  c #125406",
"1  c #125C05",
"2  c #185C06",
"3  c #14540A",
"4  c #19550D",
"5  c #155B0B",
"6  c #195C0D",
"7  c #124C11",
"8  c #165211",
"9  c #195611",
"0  c #165911",
"q  c #1B5D12",
"w  c #1E5919",
"e  c #205D0F",
"r  c #215716",
"t  c #205D14",
"y  c #215E1A",
"u  c #0E6000",
"i  c #146206",
"p  c #15620B",
"a  c #19640D",
"s  c #166A0D",
"d  c #1C6A0E",
"f  c #1C720E",
"g  c #176511",
"h  c #146611",
"j  c #196010",
"k  c #186110",
"l  c #1B6311",
"z  c #1D6010",
"x  c #1E6111",
"c  c #1D6211",
"v  c #1D6212",
"b  c #1E6312",
"n  c #1B6510",
"m  c #1C6410",
"M  c #1D6511",
"N  c #1C6611",
"B  c #1C6412",
"V  c #1E6612",
"C  c #1A6017",
"Z  c #1E6114",
"A  c #1F6215",
"S  c #1D6414",
"D  c #1E6614",
"F  c #1C6312",
"G  c #176C11",
"H  c #1E6A10",
"J  c #1F6B11",
"K  c #1F6912",
"L  c #1F6B13",
"P  c #1D6C11",
"I  c #1E6F13",
"U  c #1F6D17",
"Y  c #1E6B12",
"T  c #167010",
"R  c #1E7112",
"E  c #20660E",
"W  c #20660E",
"Q  c #20690D",
"!  c #20710B",
"~  c #20700F",
"^  c #20770F",
"/  c #206411",
"(  c #206014",
")  c #206016",
"_  c #206514",
"`  c #226717",
"'  c #216514",
"]  c #206812",
"[  c #236815",
"{  c #206A15",
"}  c #216917",
"|  c #206F14",
" . c #226E14",
".. c #236F14",
"X. c #236D16",
"o. c #226E16",
"O. c #246F14",
"+. c #226B15",
"@. c #25611B",
"#. c #23651B",
"$. c #25621D",
"%. c #23651A",
"&. c #226D1B",
"*. c #246C18",
"=. c #256C1C",
"-. c #256E1D",
";. c #246C19",
":. c #2C6C1E",
">. c #296D1D",
",. c #257310",
"<. c #227116",
"1. c #267315",
"2. c #237315",
"3. c #247B16",
"4. c #297916",
"5. c #287815",
"6. c #227219",
"7. c #257119",
"8. c #267019",
"9. c #257419",
"0. c #27761B",
"q. c #26751C",
"w. c #267319",
"e. c #28721B",
"r. c #2B761B",
"t. c #2B701D",
"y. c #2A751E",
"u. c #24791B",
"i. c #297A1C",
"p. c #226321",
"a. c #2B6F24",
"s. c #277422",
"d. c #2B7320",
"f. c #2C7921",
"g. c #317B24",
"h. c #327D2A",
"j. c #2C8119",
"k. c #328125",
/* pixels */
"= 3 : 3 # 7 4 k a w 6 7 2 0 1 q p 6.8.V a V V : q 3 @ % 6 ; @ * ",
"O 3 @ q 9 o 4 k - 3 < @ t.-.o.6.p R o.1 { , ] 1 9 @ O * Z ) O * ",
"* * 4 o O 9 5 5 U D q *.1 d 6.- s 0.H 1 q.; A 1 * O & * r @.. & ",
"= % . @ q 5 %.n k } # a > ! p P P 0.P V D 1 q < # # # * 3 9 . & ",
"@ o o # Z ; 1 ; v 5 . 2 C ,.; r.o.] H I 1 c 5 @ > 9 # % % 3 o 0 ",
") w $.9 3 1 : 5 @ @ 9 3 D ,.<.,.V 5 n 6 1 Z 9 * 5 4 O * 3 a 5 k ",
"p q O 3 : - q q ; %.:.+ O.I f a 4 3 5 1 D q < % 0 @ O % 3 / a p ",
", 1 # 3 5 0.k @ { q E 5 d G j.i 3 q < 6 &.3 o O 7 . & & % c 5 5 ",
"w # y 8 w 4 o 5 n 5 k V a d f ^ 4.a : c 5 O @ # * &   X * q 5 i ",
"% 3 9 > 3 % ; 6 D 6 5 < 5 I 2.^ 4.6.q ; >.2 ;.5 k 4 # $.@ D 6 6 ",
"@ ` 6 > @ 2 c D k 6 2 % 5 H d / ,.: 5 &.f.2 ] 6 p p 5 } ; } 5 4 ",
"< ;.p 3 < 4 / q 6 2 4 6 q 1 < [ H @ < 6 1 a d , V a p a d 8.% r ",
"6 / q < 4 q 4 5 6 5 6 6 5 ; @ ) q @ q @ Z ;.5 V t 4 < V R H o t ",
"t 6 Z ; q q 1 6 k a c a k k 3 3 # . 3 * * 5 + H 4 3 4 c , H < 3 ",
"2 3 } , c 2 p d +.a ] H V D 5 O # 3 q 4 o Z p 5.p ` c k 5 8.k 5 ",
"2 a f.g e.a <.3.i.d Q P a p 3 % # 3 2 < a.k 1 f f Q 5 1 0.a 5 ) ",
"T j.3.3.R f R R 1.E [ 6 k ; 6 k h q % d s 5 < E { 6 p *.a a ] H ",
"f.4.4.+.f d <.P [ 3 2 3 6 @ k k h q ; 1 g q ; s d i d +.p O.P <.",
"f.g e.O.+.d o.a 6 3 q 4 4 3 q c n @ 1 s O.9 5 R i.f i.2.: i.s P ",
"t.; ` *.O.1.P a < 4 #.5 3 q 2 5 p o U <./ * 0 R 3.d 2.0.i f.a d.",
"] < V H 1 1.2.1.p *.{ 6 V V 1 a 2 5 s.p : $ 4 T a s a i.g } 5 ` ",
"2 V { a ; o.<.0.i.k.1 H *.H +.P d >.` : < = @ d p ] a &.5 1 @ 3 ",
"< ` c 6 5 V p ] 0.i.i H p H o.H R ` 2 a 3 w 3 d 1 O.a 5 ; 5 q 6 ",
"` Z 3 0 #.6 < / s H i.o.; f.D a s a % >.+ p.w ; 2 t.&.: ; } ;.a ",
";.D ; D U 6 q 3 : ] 2.2.i d.5 p 6.{ c ) < c &.; 1 8.t.p - P 0.6.",
"@ ;.5 ` ` 3 3 O 3 H u 4.{ c H a H H 6 t 3 < I d k D o.{ a d P <.",
"D q.@ 6 r 3 q 4 @ { i r.a 1 e.d s d 5 : o @ +.g.a 6 n { o.a a d ",
"p s.a 6 O 2 a.> > 1 o.d 1 s 1.O.1 e.*.&.> 1 +.+.3 5 k p V p a , ",
"s d 1 5 1 *.t.- q @ s i i ] d ] i r.i.h., n V ; ; q q : 5 6 n ; ",
"s d p } c p p D c 2 k p i d a 4 Q ] a y.: 6 k @ @ 4 3 < 4 5 D 6 ",
", 6 q 6 5 ` 5 1 d *.*.H s d 6 % 6 6 a i.P p w # # 4 @ 9 6 3 v k ",
"5 ; A q o 5 6 2 d 5 k <.<.P < = q a d Q <.1 q # 3 9 @ 9 4 ; 3 > "
};
