/* XPM */
static char *_dffe68c6c0b447ca0b2f46bbe7eac3fAHNWR5NF8eSjJl6z[] = {
/* columns rows colors chars-per-pixel */
"35 32 123 2 ",
"   c #56708C",
".  c #5F7C97",
"X  c #617D99",
"o  c #6A859D",
"O  c #6A86A0",
"+  c #6C8AA3",
"@  c #718DA4",
"#  c #7996AE",
"$  c #7D98AF",
"%  c #7C9AB2",
"&  c #6392C7",
"*  c #6695CA",
"=  c #6897CC",
"-  c #6E9CCD",
";  c #719AC7",
":  c #719ECD",
">  c #6E9DD1",
",  c #709ED1",
"<  c #73A2CF",
"1  c #7AA2CC",
"2  c #74A3D3",
"3  c #79A5D4",
"4  c #77A8D4",
"5  c #7CA9D5",
"6  c #76A6D9",
"7  c #79A7D9",
"8  c #7CABDB",
"9  c #7FB0DE",
"0  c #7EAEE0",
"q  c #829EB6",
"w  c #86A3BA",
"e  c #A8B1B3",
"r  c #B1BCBE",
"t  c #86ACCF",
"y  c #82ABD5",
"u  c #89AFD3",
"i  c #82AEDB",
"p  c #88AFD9",
"a  c #8BB1D6",
"s  c #84B2DD",
"d  c #8BB3DA",
"f  c #88B8DF",
"g  c #91B7DA",
"h  c #94BADC",
"j  c #B0BFC1",
"k  c #82AFE1",
"l  c #84B3E1",
"z  c #8AB5E3",
"x  c #8DBAE3",
"c  c #85B5E8",
"v  c #88B7E8",
"b  c #86B8EA",
"n  c #8CBCEB",
"m  c #93BDE4",
"M  c #99BFE2",
"N  c #92BEE9",
"B  c #B2C0C2",
"V  c #B9C6C7",
"C  c #BDCACC",
"Z  c #95C0E6",
"A  c #9AC1E4",
"S  c #95C2EA",
"D  c #9BC5EB",
"F  c #9DC9EC",
"G  c #9BC7F1",
"H  c #9DC8F1",
"J  c #A2C7E6",
"K  c #A0C7EC",
"L  c #A3CBED",
"P  c #AAD1EF",
"I  c #B1D6EE",
"U  c #A0C7F0",
"Y  c #A4CDF2",
"T  c #A9CEF1",
"R  c #A6D1F1",
"E  c #ABD3F2",
"W  c #AFD8F6",
"Q  c #AFD6F8",
"!  c #B1D6F5",
"~  c #B1DAF5",
"^  c #B5DBF5",
"/  c #B5DDF4",
"(  c #B5DEF4",
")  c #B7DDF6",
"_  c #B9DEF5",
"`  c #BADEF5",
"'  c #B2DAFA",
"]  c #B5DBF9",
"[  c #B4DBFB",
"{  c #B2DCF8",
"}  c #B6DDF8",
"|  c #B8DCF8",
" . c #BADEF8",
".. c #BBE1F6",
"X. c #BCE0F7",
"o. c #B8E0F8",
"O. c #BBE2F8",
"+. c #BAE1FA",
"@. c #BCE1F8",
"#. c #BDE3FA",
"$. c #BEE4F9",
"%. c #C1CDCF",
"&. c #C3D1D2",
"*. c #C9D5D7",
"=. c #C8D5D8",
"-. c #CDD9DC",
";. c #D2DBDE",
":. c #D2DCDF",
">. c #D2DDE0",
",. c #D3DEE0",
"<. c #DAE4E6",
"1. c #DEE7EA",
"2. c #C0E3F8",
"3. c #C0E4F9",
"4. c #C1E5F9",
"5. c #C2E5F9",
"6. c #C1E7FC",
"7. c #C3E9FA",
"8. c #C4E8F9",
"9. c #C5E8FA",
"0. c #C5E9FB",
"q. c #C5EAFB",
"w. c #C9EDFC",
/* pixels */
"o ! q.q.E 4.w.$.$.O.O.O.O.` ~ ^ h d ..7.4.Q q.w.O.4.O.O.5.` ` ~ ^ t r ",
"@ I q.4.E 4...` ` ) ` O.` ` E ~ M u O.7. .~ 4.` ` ) ) ) X.` ~ E ` a *.",
"o E X.' H [ H L T Y D F S D n H N y ` } W U ' F L T T S D S S n U a =.",
"@ T Y D z Y N l c m s 8 i 8 0 D m y E L N m Y v v m x 8 8 i 8 l T u :.",
"q ! o.W ! { G v 8 H n c S S n Y m y ` [ W ~ ~ n v v G c c D n n E u r ",
"$ ~ ..E L L Z z 9 v 8 5 0 8 9 F A i ../ Y L L f f 9 z 4 3 i 9 9 E d C ",
"% E ..R D D x 8 2 9 2 , 2 7 0 F A y ` ) L D D s 8 2 8 2 > 5 8 c Y d -.",
"+ E O.W L Z 5 4 * 2 2 - , 2 8 S M y | | W D x 5 3 * 2 2 > , 2 9 L g ,.",
". E O.E h D 0 8 2 2 0 6 > 2 c H K 7 ` ) L A N 8 8 > 4 8 3 = 8 b E h V ",
"o E X.F m D 5 4 2 2 2 2 , 8 8 F L i ` ) A S x 4 2 2 < 4 4 > 0 l P A %.",
"o L o.S z m 3 - - - 4 5 : 8 i H J y ~ P m m z 3 = > 2 4 5 - l l T A <.",
"X K W F i s i 3 2 - 5 y 3 m N D L 5 W E Z i i i 3 , - 5 i 3 A n E A 1.",
"w L T K z s i i > 3 s l i D D T J y ~ P K l i i s > 7 s s i L D E d &.",
"w ` q.2.T N x x 2 n N M d L E ~ J m O.q.X.D N z n 7 x A m z P E  .g V ",
"% ^ q._ T S m N 9 S S S z L L W M p 4.4.~ K S m x s S S m n P L ! g ;.",
"o J _ I T A x f s S S A S K K J y ; I ^ ! L m h l l D N M D L A D t <.",
"  ; a d y a d u i a s u y 5 1 1 : ; 1 a a y a d s u a d y y y : 1 1 ;.",
"o ) w.w.W w.w.7.5.4...q.4.O.O...M a 4.w.6.' w.w.4.q.$.$.q.O.O.` X.u B ",
"@ ! 6.$.Y 6.) ^  .^ ~ ) ` W H W h p 2.4.+.Q O.W } ` } ~ ) ^ ! L ~ u =.",
"o T } Q D ' H S U K Z Z n m n H m y [ } R H Q D D U D Z m x S v Y a -.",
"$ L K S z Y n k l N 8 7 8 8 0 S h y T D A N H l s v x 5 8 8 0 l H u ;.",
"q ) O.` ) { D n l U n v S S b Y M i $.) ~ } W S N v G b c D n n E u e ",
"# W  .E F L Z s 8 l 8 3 8 8 9 F A i ` ) Y F L x s 8 s 4 2 8 8 l P d *.",
"% E O.E D D f 8 > 7 3 - 4 4 9 F M i ` ) L D S s 8 2 5 2 > 7 8 l R d ;.",
"o T ) W J m 8 2 * - , = - > 8 S m 5 ) ^ P K z 3 2 & 2 > - = 2 8 D g :.",
"X ! $.P m D l 8 6 6 0 8 > 8 b H L i ....L N S 8 0 2 8 8 8 > 0 b W h j ",
"O P ^ F m S 4 2 < < < 4 - 8 s F L u ) ~ Z A m 3 > 2 < < 4 - 0 l E A *.",
"O L ) S f m 4 - : < 5 5 2 i l D L 5 ~ P m n z 2 - - - 5 5 < z l T A <.",
"X L ! L y i y 4 2 - 3 5 3 m N D L y ! P Z 5 s y 3 2 : 4 i 3 M n T M 1.",
"q E ! E N v z l , 8 v m d D T E J i [ E Y m l z k 2 8 m x z L L ! g V ",
"w | 5.X.L N z m 3 n N M l K T ` J x 2.4.` D n x x 8 x Z x z P T ) g %.",
"# | q.` E S N m l S S D m L L E M y 4.4.) L Z m n l D S Z M E L ! g ;."
};
