/* XPM */
static char *_84583e74a744857d42e17b0a7379ea3xPK31VfkaexuvYKQ[] = {
/* columns rows colors chars-per-pixel */
"32 32 127 2 ",
"   c #231711",
".  c #251A14",
"X  c #291D16",
"o  c #271D18",
"O  c #2A1F18",
"+  c #2D221B",
"@  c #32241D",
"#  c #2F2722",
"$  c #322720",
"%  c #352A23",
"&  c #3B2C24",
"*  c #392F28",
"=  c #3C3127",
"-  c #3D332B",
";  c #412F27",
":  c #433027",
">  c #43342B",
",  c #44382F",
"<  c #4B3A2F",
"1  c #423730",
"2  c #453A32",
"3  c #4B3C33",
"4  c #533D33",
"5  c #4D4136",
"6  c #4D4239",
"7  c #544236",
"8  c #5A4236",
"9  c #53453A",
"0  c #5B4539",
"q  c #54493D",
"w  c #5B4A3E",
"e  c #634B3D",
"r  c #564B41",
"t  c #5B4D41",
"y  c #5C5245",
"u  c #5F5749",
"i  c #5F584B",
"p  c #634E41",
"a  c #635145",
"s  c #6A5346",
"d  c #64554A",
"f  c #6B5649",
"g  c #635B4D",
"h  c #6D594C",
"j  c #715546",
"k  c #715749",
"l  c #735B4D",
"z  c #7A5E4E",
"x  c #675F50",
"c  c #765F50",
"v  c #785F50",
"b  c #6C6454",
"n  c #756455",
"m  c #7C6353",
"M  c #766758",
"N  c #766D5C",
"B  c #7C695A",
"V  c #7C7462",
"C  c #826655",
"Z  c #846857",
"A  c #8B6A57",
"S  c #856B59",
"D  c #8B6E5B",
"F  c #82705F",
"G  c #8D715E",
"H  c #91725E",
"J  c #857462",
"K  c #8D7461",
"L  c #807966",
"P  c #8C7865",
"I  c #8C7F6C",
"U  c #947662",
"Y  c #987763",
"T  c #967965",
"R  c #9B7A65",
"E  c #957D69",
"W  c #9D7E69",
"Q  c #A37E67",
"!  c #A17F69",
"~  c #9D816C",
"^  c #958570",
"/  c #988370",
"(  c #9B8470",
")  c #9C8570",
"_  c #A3826B",
"`  c #A1826C",
"'  c #A5826C",
"]  c #A5836C",
"[  c #A5856E",
"{  c #A6846E",
"}  c #A9856D",
"|  c #AA856D",
" . c #A9876F",
".. c #A48671",
"X. c #A68670",
"o. c #A98770",
"O. c #A68973",
"+. c #A18A75",
"@. c #A48A75",
"#. c #A98871",
"$. c #AA8871",
"%. c #A88A73",
"&. c #AB8A72",
"*. c #AD8A71",
"=. c #AC8A72",
"-. c #AE8C74",
";. c #AF8D74",
":. c #B18E75",
">. c #B18F77",
",. c #A0927C",
"<. c #AD9079",
"1. c #B49177",
"2. c #B29178",
"3. c #B29278",
"4. c #B69379",
"5. c #B4937A",
"6. c #B7947B",
"7. c #B7957B",
"8. c #B8937A",
"9. c #B8957A",
"0. c #B8977D",
"q. c #BB997F",
"w. c #A89982",
"e. c #AE9B84",
"r. c #BC9C82",
"t. c #BFA187",
"y. c #B0A089",
/* pixels */
"S C C S G G S l O d [ Q R W W ~ @ 1 S X.U D D Z m v Z T U * * v ",
"S m m m G H G f O t  .' Q R R [ $ 2 B X.R K Z A S v m U U * - v ",
"D D S m m Z S c o y [ [ _ _ _ W % 1 C ! U W U U D K K U A * * d ",
"B S Z m z m G 0 O a o. .o.o.X.A % 1 S _ _ W W W U W U U v % * p ",
"z C m S Z Z G % O w W :.:.*.*.A % - C R ' ! ! _ W ! ' D e $ % 3 ",
"> a m m c s - . X 6 C R _ Y C 0 & @ * j z m C v v k k p 4 O o % ",
"+ . o X + X . X   @ 3 : @ @ : %   . O @ % & & & > 3 3 4 % .   o ",
"@.E q 7 E e.y.w.w.,.q + t m M S P K J V q X 3 J @.~ ( / @./ E E ",
":.2.m 9 #.9.5.#.[ :.D & B  .[ ' ' [ ' [ J = , ~ 5.o.*.o. .2.0.5.",
"2.*.j 3 [ 9.:. .'  .U 3 m `  ._ [ [ [ *.W > - ~ :.:.:.*.:.5.5.5.",
"#.R 8 - U :.*.#.' Q A > h W [ #. .[ '  .' % - Y 5.:.>.:.:.5.:.#.",
"Z 7 @ @ 8 C Z S G D 8 + , m Z Z D U U G 4 X + w ! -.W U D T T Y ",
"N V V L M 5 + @ @ < 9 q t w q 7 t u g u i b y = . 5 B J V 9 & g ",
"5.r.9.0.5.n $ 9 h K U R [ @.R ~ <.O.[ ~ [ [ E s @ P t.0.5.B 9 @.",
"2.2.5.9.q.j & y T W U Y ` ' W R R R U U ~ ' H a + ~ q.q.5.S y *.",
";.*.:.5.r.e & d T ` ' H D D Y Y R Y R W ' ` H s + T :.8.#.S a #.",
"Q Q Q  .8.e 2 a c Q o._ W ! R U H Y ' *.;.R z 8 + G 8.:.:.z 3 W ",
"; 4 e e e @ + & & @ @ $ & $ O # @ % @ O + % % . . @ & = & X X & ",
"w w q t a s h a t a 2 O @ 3 r r r t t t y d q @ X 3 a e w + @ 3 ",
"l f f l l f l c m S 4 O 2 S m c m m C S S G U 3 O p z m l > % t ",
"l z l c c v c m C G 3 o r m v m m B Z C S G U e O s S C C 7 * a ",
"l m v c m m m m C D 3 O t D D Z m C Z Z S D H s + l U D K 7 % t ",
"* 3 3 8 w 8 w e w 7 $ O r U Z S S Z S S S S D f + - p p > . O $ ",
"O 6 M E / I ^ I I n % O r U S C S S D C m Z A a + * 3 t 9 9 9 3 ",
"@ h W Y U H Y Q ! ` t O t U D C S D D A C m D a + - f a h c h t ",
"+ a R W R ` W ` '  .z O 6 U D D D D K A C S H s % 1 h h f f h p ",
"+ 9 U ! ` Q ~ ` ' ! k O * z G A D G H U R H C 4 + % w f s f f 7 ",
". > h K U U U Y H C > o O $ & & ; & ; ; ; & % o . O 3 3 7 9 0 % ",
"> - ; * * & $ O . X = x b y y * . + 2 y d y r q 9 q 9 3 O     O ",
"M F J J S g r * . - m E [ +.E n @ 3 n +.#.#.( E W ( E J t O % d ",
"U S U T K G S 2 @ d E #.[ o.X.~ 3 2 S ..#.Q ! Y H H ! R m $ 2 n ",
"S G Z K A m S 7 O d X.! R R W o.% 2 F W A Z C z l m S ! K 2 * h "
};
