/* XPM */
static char *aa66a236b1fb4aade287191c480825919YuX8R5T1jtUlT4a[] = {
/* columns rows colors chars-per-pixel */
"30 32 153 2 ",
"   c #170D0A",
".  c #1F120D",
"X  c #28160E",
"o  c #221D18",
"O  c #2A231F",
"+  c #312319",
"@  c #3F311B",
"#  c #272321",
"$  c #3A2923",
"%  c #3F3321",
"&  c #34312E",
"*  c #3A3937",
"=  c #45261C",
"-  c #503C1D",
";  c #482D24",
":  c #512D23",
">  c #4B3C27",
",  c #42332B",
"<  c #4A382E",
"1  c #583225",
"2  c #5B342C",
"3  c #433D3B",
"4  c #573935",
"5  c #653C2B",
"6  c #793D29",
"7  c #6B3D37",
"8  c #683F38",
"9  c #5C431D",
"0  c #5D4722",
"q  c #57452B",
"w  c #58472A",
"e  c #4D4136",
"r  c #45403A",
"t  c #524434",
"y  c #574639",
"u  c #5A4C3D",
"i  c #644D24",
"p  c #694C21",
"a  c #655026",
"s  c #6E552B",
"d  c #71572A",
"f  c #7A5E2B",
"g  c #774C3B",
"h  c #695639",
"j  c #705A37",
"k  c #7F683E",
"l  c #464443",
"z  c #5C4B43",
"x  c #5C4F48",
"c  c #595655",
"v  c #7C4943",
"b  c #685746",
"n  c #6C5E52",
"m  c #615F5D",
"M  c #786345",
"N  c #7D6847",
"B  c #73614B",
"V  c #7A644E",
"C  c #6B615A",
"Z  c #796656",
"A  c #74655B",
"S  c #7E6D5B",
"D  c #666564",
"F  c #6D6764",
"G  c gray42",
"H  c #7C6D63",
"J  c #7A736A",
"K  c #747474",
"L  c #7C7877",
"P  c #8E5A3E",
"I  c #83652D",
"U  c #856937",
"Y  c #9A7836",
"T  c #9D793B",
"R  c #A2762D",
"E  c #894E45",
"W  c #87574C",
"Q  c #836B45",
"!  c #997A4F",
"~  c #8C6954",
"^  c #836B5A",
"/  c #936D56",
"(  c #867057",
")  c #81705E",
"_  c #967B53",
"`  c #987059",
"'  c #A76257",
"]  c #8B7764",
"[  c #847B7A",
"{  c #B46960",
"}  c #C66B5E",
"|  c #DD6A5B",
" . c #7F807E",
".. c #C79839",
"X. c #DFA13B",
"o. c #E5AE3E",
"O. c #9B8158",
"+. c #A48242",
"@. c #B18844",
"#. c #BD9148",
"$. c #A8885A",
"%. c #B99856",
"&. c #97806A",
"*. c #898177",
"=. c #8B847D",
"-. c #938074",
";. c #9A8577",
":. c #9D877A",
">. c #9D8879",
",. c #A28C7A",
"<. c #B99176",
"1. c #B0987F",
"2. c #C49546",
"3. c #CE9B43",
"4. c #DCA942",
"5. c #E98674",
"6. c #838383",
"7. c #888786",
"8. c #8B8B8B",
"9. c #949392",
"0. c #999897",
"q. c #9C9C9C",
"w. c #AC9283",
"e. c #B59A85",
"r. c #BB9D8C",
"t. c #A4A4A4",
"y. c #AAA8A6",
"u. c #B2B2B2",
"i. c #BCBCBC",
"p. c #C0A18F",
"a. c #C3AA8E",
"s. c #CBAC8E",
"d. c #DEAC8C",
"f. c #CCAB95",
"g. c #DEB494",
"h. c #E9AC97",
"j. c #E1BF9E",
"k. c #E8BBA4",
"l. c #C5C0AF",
"z. c #C4C1BD",
"x. c #E3C5A6",
"c. c #ECCCAB",
"v. c #F2C8A7",
"b. c #F2CDAC",
"n. c #EFD0AE",
"m. c #F7D3B0",
"M. c #C2C2C2",
"N. c #CCCCCC",
"B. c #D4D3D3",
"V. c #DDDDDD",
"C. c #E3E3E3",
"Z. c #ECECEC",
"A. c #F6F6F6",
/* pixels */
"Z.Z.Z.Z.Z.Z.Z.Z.Z.Z.Z.Z.Z.Z.Z.Z.Z.Z.Z.Z.Z.Z.Z.Z.Z.Z.Z.Z.Z.Z.",
"Z.Z.Z.Z.Z.Z.Z.Z.Z.Z.Z.Z.Z.Z.Z.Z.Z.Z.Z.Z.Z.Z.Z.Z.Z.Z.Z.Z.Z.Z.",
"Z.Z.Z.Z.Z.Z.Z.Z.Z.Z.Z.Z.Z.Z.Z.Z.Z.Z.Z.Z.Z.Z.Z.Z.Z.Z.Z.Z.Z.Z.",
"Z.Z.Z.Z.Z.Z.Z.Z.Z.Z.Z.Z.Z.V.u.7. .i.Z.Z.Z.Z.Z.Z.Z.Z.Z.Z.Z.Z.",
"Z.Z.Z.Z.Z.Z.Z.Z.Z.Z.Z.C.q.q R ....a N.Z.Z.Z.Z.Z.Z.Z.Z.Z.Z.Z.",
"Z.Z.Z.Z.Z.Z.Z.Z.Z.C.M.D f 3.X.o.4.Q c C.Z.Z.Z.Z.Z.Z.Z.Z.Z.Z.",
"Z.Z.Z.Z.Z.Z.Z.Z.V.K O 9 2.2.3.3.I j h t.Z.Z.Z.Z.Z.Z.Z.Z.Z.Z.",
"Z.Z.Z.Z.Z.Z.Z.B.m 0 w +.#.@.T s O.z.B.F V.Z.Z.Z.Z.Z.Z.Z.Z.Z.",
"Z.Z.Z.Z.Z.Z.Z.K V V ( U s s T h $.B.A.0.q.Z.Z.Z.Z.Z.Z.Z.Z.Z.",
"Z.Z.Z.Z.Z.Z.C.c S Z U +.%.$.O.Q _ y.A.y.& M.Z.Z.Z.Z.Z.Z.Z.Z.",
"Z.Z.Z.Z.Z.Z.B.& b ! O.S Z Z S _ t u 0.D > * 9.u.B.Z.Z.Z.Z.Z.",
"Z.Z.Z.Z.Z.Z.M.y S C A A n B N k s 9 9 p 9 - $ # * B.Z.Z.Z.Z.",
"Z.Z.Z.Z.Z.C.G z b C Z M j h > @ < u t O o * G y.B.Z.Z.Z.Z.Z.",
"Z.Z.Z.Z.C.8.t n M h % e ) ,.g ^ x.n.e.B S M.Z.Z.Z.Z.Z.Z.Z.Z.",
"Z.Z.Z.Z.q.z n $ X 5 g s.m.n.W b b.c.&.2 < y.Z.Z.Z.Z.Z.Z.Z.Z.",
"Z.Z.Z.B.# o 7 <.y 5 P 1.m.m.] ) c.( } h.k.' i.Z.Z.Z.Z.Z.Z.Z.",
"Z.Z.Z.Z.M. .8 8 4 5 P Z c.b.c.x.a.E | 5.| { u.Z.Z.Z.Z.Z.Z.Z.",
"Z.Z.Z.Z.Z.M.4 { @ ; A ;.r.p.f.f.p.z v E g K C.Z.Z.Z.Z.Z.Z.Z.",
"Z.Z.Z.Z.Z.Z.u.4 ' < H :.,.w.w.e.p.-.A C 3 B.Z.Z.Z.Z.Z.Z.Z.Z.",
"Z.Z.Z.Z.Z.Z.Z.N.q.t.l z ] [ >.>.;.n , l i.Z.Z.Z.Z.Z.Z.Z.Z.Z.",
"Z.Z.Z.Z.Z.Z.Z.Z.Z.C.L i d q 4 r & + l V.Z.Z.Z.Z.Z.Z.Z.Z.Z.Z.",
"Z.Z.Z.Z.Z.Z.Z.Z.Z.M.@ T 2.Y I l.J f & B.Z.Z.Z.Z.Z.Z.Z.Z.Z.Z.",
"Z.Z.Z.Z.Z.Z.Z.Z.V.n f.j.s.d s t. .a B H V.Z.Z.Z.Z.Z.Z.Z.Z.Z.",
"Z.Z.Z.Z.Z.Z.Z.Z.t.<.v.b.m.V = =.*.r y ^ M.Z.Z.Z.Z.Z.Z.Z.Z.Z.",
"Z.Z.Z.Z.Z.Z.Z.Z.0.^ g.g.d.y   J x 3 , , B.Z.Z.Z.Z.Z.Z.Z.Z.Z.",
"Z.Z.Z.Z.Z.Z.Z.Z.V.A ~ ` / + 6 6 1 : x u.Z.Z.Z.Z.Z.Z.Z.Z.Z.Z.",
"Z.Z.Z.Z.Z.Z.Z.Z.Z.V.u.L . : 5 = = : t.Z.Z.Z.Z.Z.Z.Z.Z.Z.Z.Z.",
"Z.Z.Z.Z.Z.Z.Z.Z.Z.Z.Z.u.. l [ o 3 F 6.Z.Z.Z.Z.Z.Z.Z.Z.Z.Z.Z.",
"Z.Z.Z.Z.Z.Z.Z.Z.Z.Z.Z.C.C.V.V.C.V.C.V.Z.Z.Z.Z.Z.Z.Z.Z.Z.Z.Z.",
"Z.Z.Z.Z.Z.Z.Z.Z.Z.Z.Z.Z.Z.Z.Z.Z.Z.Z.Z.Z.Z.Z.Z.Z.Z.Z.Z.Z.Z.Z.",
"Z.Z.Z.Z.Z.Z.Z.Z.Z.Z.Z.Z.Z.Z.Z.Z.Z.Z.Z.Z.Z.Z.Z.Z.Z.Z.Z.Z.Z.Z.",
"Z.Z.Z.Z.Z.Z.Z.Z.Z.Z.Z.Z.Z.Z.Z.Z.Z.Z.Z.Z.Z.Z.Z.Z.Z.A.Z.Z.Z.Z."
};
