/* XPM */
static char *cf40f8ae63bd4a0aea84e2e3a5dc893fIehPV7V1Y1NsVmcp[] = {
/* columns rows colors chars-per-pixel */
"32 32 179 2 ",
"   c None",
".  c #020201",
"X  c #0B0603",
"o  c #0D0B08",
"O  c #0E0802",
"+  c #1B0F00",
"@  c #120B09",
"#  c #140705",
"$  c #1B140C",
"%  c #1F1306",
"&  c #111010",
"*  c #1D1814",
"=  c #261A08",
"-  c #39180F",
";  c #251C12",
":  c #211D1D",
">  c #331F1B",
",  c #3D2B0C",
"<  c #34230A",
"1  c #2D241C",
"2  c #32231C",
"3  c #3F281F",
"4  c #372318",
"5  c #3D2E26",
"6  c #322824",
"7  c #3B3124",
"8  c #3C312B",
"9  c #3D3636",
"0  c #42231E",
"q  c #462A1A",
"w  c #542C1C",
"e  c #50261D",
"r  c #49371F",
"t  c #493313",
"y  c #533A10",
"u  c #4E2F24",
"i  c #532D24",
"p  c #572F29",
"a  c #582D28",
"s  c #4C342A",
"d  c #533B2D",
"f  c #563527",
"g  c #453A33",
"h  c #463D37",
"j  c #623C2C",
"k  c #7F3923",
"l  c #653C38",
"z  c #7C3933",
"x  c #5D4214",
"c  c #5D431B",
"v  c #634616",
"b  c #6C4A17",
"n  c #6F551F",
"m  c #75551C",
"M  c #5A4529",
"N  c #4B4136",
"B  c #594439",
"V  c #654D2E",
"C  c #745622",
"Z  c #7C5B22",
"A  c #7D5F2F",
"S  c #654436",
"D  c #7F4930",
"F  c #7E433D",
"G  c #724C3B",
"H  c #6C5433",
"J  c #765E3E",
"K  c #7E5F33",
"L  c #7C623C",
"P  c #4E4545",
"I  c #594A42",
"U  c #5E594D",
"Y  c #7A4540",
"T  c #645244",
"R  c #6B5544",
"E  c #63534B",
"W  c #715B4B",
"Q  c #655C56",
"!  c #715F57",
"~  c #7D654C",
"^  c #77604C",
"/  c #6B645D",
"(  c #746153",
")  c #7C6453",
"_  c #766359",
"`  c #7A665A",
"'  c #7C6A5C",
"]  c #7C6A54",
"[  c #6D6B6B",
"{  c #7F6A60",
"}  c #776C6C",
"|  c #7A7672",
" . c #7C7D7D",
".. c #883E26",
"X. c #813730",
"o. c #AA7317",
"O. c #805E20",
"+. c #9F5B3C",
"@. c #A05B3F",
"#. c #896624",
"$. c #86653B",
"%. c #876634",
"&. c #9B743C",
"*. c #A5782C",
"=. c #A67731",
"-. c #A77A32",
";. c #895F48",
":. c #815C4E",
">. c #A4564E",
",. c #B75148",
"<. c #A55851",
"1. c #8E6A48",
"2. c #906E48",
"3. c #957349",
"4. c #876E58",
"5. c #846952",
"6. c #956C55",
"7. c #8E7050",
"8. c #8B745D",
"9. c #947652",
"0. c #A07E50",
"q. c #8C7669",
"w. c #907560",
"e. c #937B6E",
"r. c #987A67",
"t. c #847878",
"y. c #967E70",
"u. c #A77064",
"i. c #DE5F55",
"p. c #CF6A5E",
"a. c #E4685C",
"s. c #F36C5E",
"d. c #C67368",
"f. c #B18022",
"g. c #AE8135",
"h. c #B98635",
"j. c #DA9E14",
"k. c #EA9C10",
"l. c #EFA80D",
"z. c #E9A81F",
"x. c #D3942D",
"c. c #D99D2E",
"v. c #C58E37",
"b. c #CE9233",
"n. c #BA914A",
"m. c #A68255",
"M. c #AC8753",
"N. c #9A836C",
"B. c #94897D",
"V. c #B3876C",
"C. c #A28778",
"Z. c #A68A7A",
"A. c #CE9474",
"S. c #B29181",
"D. c #BE9987",
"F. c #A59D95",
"G. c #A5A197",
"H. c #A8A7A5",
"J. c #B2ADA1",
"K. c #BFB7AF",
"L. c #BCBABA",
"P. c #C49E8A",
"I. c #C9A28E",
"U. c #CCAB8B",
"Y. c #C5A286",
"T. c #DCA988",
"R. c #DEB695",
"E. c #FEAB95",
"W. c #EFB996",
"Q. c #E2B89B",
"!. c #EFC6A2",
"~. c #F3CBA6",
"^. c #FDCDA8",
"/. c #F7C8A7",
"(. c #FED2AB",
"). c #CAC5C0",
"_. c #DEDDDD",
"`. c #F7F7F6",
"'. c #F8F8F8",
/* pixels */
"                                                                ",
"                                                                ",
"                                                                ",
"                                . O                             ",
"                            , o.j.j.#.                          ",
"                        . v x.k.l.z.&.$                         ",
"                    . = , v.b.x.c.#.%.` $                       ",
"                  . c M &.v.h.*.m 3.K._.|                       ",
"                  H 4.4.%.m Z -.A m.).`.H..                     ",
"                . ( ` $.g.n.M.9.2.5.B.`.L.%                     ",
"                . B 2.m.` _ ` 5.9.V M | Q d < ; @               ",
"                1 ] _ _ / W L L %.m b v b x t 1 1 o             ",
"              . 7 T ^ ~ ^ H V r 1 N ( ] 2 5 @ o                 ",
"              g ^ ~ V , N N.Y.6.S ^.^.U.G 8.                    ",
"            g T 7 X w >.N.(.(.r.e !.~.r.X.z #                   ",
"          X * 0 d.u.w +.5.^.(.U.R ~.:.a.E.^.p.                  ",
"              p F p e D j Q.~.~.!.R.F i.s.s.,.                  ",
"              # >.<.p _ C.S.D.D.I.I.` S l l #                   ",
"                X $.p I e.C.S.S.S.D.y.{ _ h                     ",
"                      . 6 E 4.e.e.q.Q 8 .                       ",
"                      O m *.m C U N y X                         ",
"                      < $.=.f.#.J.G.O.=                         ",
"                    d R.^./.6.m [  .c W w.                      ",
"                    5.W.^.^.V.# G.B./ 5 )                       ",
"                    d A.T.A.:.- B f u s 2                       ",
"                      s 6.j u ....i p o                         ",
"                          # q I 5 > S .                         ",
"                          & h t.P 9 } :                         ",
"                                                                ",
"                                                                ",
"                                                                ",
"                                                                "
};
