/* XPM */
static char *df33b03c6f314f90f32123bf39f5533c6kRXlFmFM85TcSB0[] = {
/* columns rows colors chars-per-pixel */
"33 32 131 2 ",
"   c #6D2E1C",
".  c #732D17",
"X  c #7B2E14",
"o  c #742F19",
"O  c #782F18",
"+  c #6F311E",
"@  c #7C3016",
"#  c #73321D",
"$  c #7A341C",
"%  c #5E3327",
"&  c #5E3328",
"*  c #672F21",
"=  c #643224",
"-  c #6B3423",
";  c #633628",
":  c #6B372A",
">  c #67382A",
",  c #6C3A2B",
"<  c #733521",
"1  c #7A3620",
"2  c #743925",
"3  c #7D3B23",
"4  c #733D2B",
"5  c #7A3E29",
"6  c #75402E",
"7  c #7B422D",
"8  c #862C06",
"9  c #8C2E04",
"0  c #822D0B",
"q  c #882E08",
"w  c #8F3005",
"e  c #87310E",
"r  c #8D320C",
"t  c #933105",
"y  c #94340A",
"u  c #993609",
"i  c #9D390C",
"p  c #802F13",
"a  c #853213",
"s  c #8B3514",
"d  c #83361A",
"f  c #84391E",
"g  c #8A3B1E",
"h  c #923710",
"j  c #963911",
"k  c #9C3C14",
"l  c #A33C0E",
"z  c #A53E11",
"x  c #843D23",
"c  c #8B3E21",
"v  c #9D411C",
"b  c #A74014",
"n  c #AB4315",
"m  c #A4441C",
"M  c #AC4519",
"N  c #AE481D",
"B  c #B04517",
"V  c #B14719",
"C  c #B1491C",
"Z  c #854127",
"A  c #8C4225",
"S  c #85442C",
"D  c #8B452B",
"F  c #8E492E",
"G  c #954223",
"H  c #9D4522",
"J  c #9F4A27",
"K  c #924629",
"L  c #934A2D",
"P  c #9B4C2C",
"I  c #834730",
"U  c #8E4A30",
"Y  c #944C30",
"T  c #994E31",
"R  c #9E5132",
"E  c #A14622",
"W  c #A74922",
"Q  c #AC4B23",
"!  c #A34D2A",
"~  c #AE4F28",
"^  c #B24E24",
"/  c #AF5027",
"(  c #AB512C",
")  c #B65126",
"_  c #B85226",
"`  c #B4532A",
"'  c #BA5429",
"]  c #B9552A",
"[  c #BA552A",
"{  c #BC572C",
"}  c #BD592E",
"|  c #BE592F",
" . c #BE5A2F",
".. c #A35332",
"X. c #A05334",
"o. c #A35535",
"O. c #AC5835",
"+. c #B55730",
"@. c #B45932",
"#. c #B65B34",
"$. c #BD5B31",
"%. c #BC5B32",
"&. c #BF5D33",
"*. c #C06037",
"=. c #97675D",
"-. c #99685E",
";. c #A46A5E",
":. c #AA6C5F",
">. c #856761",
",. c #896760",
"<. c #8B6760",
"1. c #876861",
"2. c #8B6962",
"3. c #8F6A62",
"4. c #926C63",
"5. c #956D63",
"6. c #9A6E63",
"7. c #9E6F63",
"8. c #A96F61",
"9. c #AF6F60",
"0. c #A37164",
"q. c #AD7061",
"w. c #AC7464",
"e. c #B17060",
"r. c #B27262",
"t. c #B77362",
"y. c #B67463",
"u. c #B87463",
"i. c #B67866",
"p. c #BB7A67",
"a. c #BD7B68",
/* pixels */
"8.v o H m v j - m v @ D m m k = m m e Z m v k + H v r 3 m v v # 0.",
"3.7 X.P < U R P d 4 ..P $ S R P g > ..T x 7 R P g ; R R A , X.P 7.",
"=.P ) b p ! ^ z w D ' n a P ) l y x ' n t K ) b i $ | M u Z ) n 8.",
">.= # o - -   . . ; # . # - + . o % # $ + = + o o % # $ O = - . <.",
"u.d #.| ^ s @.$.) h O.$.) j o.&.` i P &.) i Y *.` b L &.) b D *.p.",
"e.X ^ ^ n a ! ' n e ! ) n r P ' n r J ) V y D ' V y K ) V i Z { y.",
";.X m z i X v z i 0 v b i q v k l 8 v b i w A b i w g b i t x n 8.",
"4.5 = 3 $ 5 3 = 3 3 : 4 $ 3 5 = 3 3 : : 3 3 5   3 3 2 - 3 3 6   3.",
"q.m @ J m m k < W m a L m m v + ! m r D N m m + W m h Z m M m # 0.",
"3.4 R L < I P Y $ 4 R L 1 7 T L d > R L 3 6 L L g ; Y Y Z , R K 6.",
"=.P ` n @ ( ) b u D ' M e ! ) b i Z | M t L ) n i $ &.N i Z ` M 9.",
">.: o o   +   . . ; # o + - + o . ; $ . # = + . o % $ o o = + o <.",
"y.d @.| ^ s O.| ) s ( | ) y R $.) j R | ) i Y &.) b L | ) b S *.a.",
"e.X ~ ) n a ( ' n e ! _ M r ! ' n w J ' V y F { N y K _ V i Z | y.",
"8.O m z l X v b i 0 v b l q G b l 8 G b l w A b l w A b l u x n 8.",
"3.< - < $ 2 < = $ 2 : - $ 2 2 = $ 2 - = $ 2 2 = $ $ - = $ $ , + 2.",
"e.N $ ! N W m < ^ Q a L W Q m # / Q h D N Q m # Q Q h Z ( Q m $ w.",
"2.4 Y K - S K U $ , L U $ 7 K U d ; L L 3 4 L F f & L U f , L F 5.",
"5.P ' M a ( ' b y K ' N r ..` b i Z | N y L ' M z $ &.N i D | N 9.",
">., # X = < o . o ; @ $   - o O . & $ $ # = # @ . % 1 $ . = # . <.",
"e.d #.` C s O.@.^ s ..' ^ h R | / j P | ^ j U @.) k F &.) b 7 &.p.",
"e.X ~ _ n a ( ' M e ! ] n e T | M t J ' M y K { V u K ' V i Z | u.",
";.X m n l X H z l 0 H n l 8 G n l 8 v b l t A n b w g n l t x n q.",
"<.- -   o - < = . < - - $ < - * $ + ; ; $ # ,   . # - = o $ : - 1.",
"y.~ @ ! ~ ^ m $ ` ~ a P Q ^ m # ( ) h D ( ^ W . / / k Z ) / Q @ q.",
"2.2 U S - 3 D I @ , D D < 5 D Z X , D F $ 4 D S $ % D S $ , F S 4.",
"-.T $.N a @.' M u K { ^ r ..$.M i Z &.C y P $.N l $ *.) u D | C e.",
">.2 @ @ * < O O . , @ X   < $ o o ; d @   : @ X @ % f @ @ ; $ @ <.",
"8.d @.' W d ..' ^ s ..` ^ s T +.` y Y ] ^ j F @.( k D | ~ k S @.i.",
"e.X ~ ' n a ( ' B p ! ' M t R { M t J ] V u L | V u K ' C i D | y.",
"8.X W z z a E n l 0 H n z 0 G n z 9 K n z 9 K n z t c M z t x n 9.",
"<.; , - # ; 2 > < - , - 1 - : : < - > : + + : , # - , , # - > 2 2."
};
